HIERARCHY
ROOT Pelvis
{
	OFFSET 0.000000 0.000000 0.000000
	CHANNELS 6 Xposition Yposition Zposition Xrotation Yrotation Zrotation
	JOINT LeftUpLeg_virtual
	{
		OFFSET 0.000000 0.000000 0.000000
		CHANNELS 3 Xrotation Yrotation Zrotation
		JOINT LeftUpLeg
		{
			OFFSET 18.735201 -5.666702 -4.541200
			CHANNELS 3 Xrotation Yrotation Zrotation
			JOINT LeftLeg
			{
				OFFSET -0.021200 -31.938179 0.493100
				CHANNELS 3 Xrotation Yrotation Zrotation
				JOINT LeftFoot
				{
					OFFSET 0.021200 -31.938179 -4.336299
					CHANNELS 3 Xrotation Yrotation Zrotation
					JOINT LeftToeBase
					{
						OFFSET 0.943001 -26.722000 15.023500
						CHANNELS 3 Xrotation Yrotation Zrotation
						End Site
						{
							OFFSET 0 0 0
						}
					}
				}
			}
		}
	}
	JOINT RightUpLeg_virtual
	{
		OFFSET 0.000000 0.000000 0.000000
		CHANNELS 3 Xrotation Yrotation Zrotation
		JOINT RightUpLeg
		{
			OFFSET -18.735201 -5.666702 -4.541200
			CHANNELS 3 Xrotation Yrotation Zrotation
			JOINT RightLeg
			{
				OFFSET 0.018946 -31.938133 0.493100
				CHANNELS 3 Xrotation Yrotation Zrotation
				JOINT RightFoot
				{
					OFFSET -0.018946 -31.938126 -4.336299
					CHANNELS 3 Xrotation Yrotation Zrotation
					JOINT RightToeBase
					{
						OFFSET -0.943001 -26.722004 15.023500
						CHANNELS 3 Xrotation Yrotation Zrotation
						End Site
						{
							OFFSET 0 0 0
						}
					}
				}
			}
		}
	}
	JOINT Hips_virtual
	{
		OFFSET 0.000000 0.000000 0.000000
		CHANNELS 3 Xrotation Yrotation Zrotation
		JOINT Hips
		{
			OFFSET -0.000000 -0.000000 -0.000000
			CHANNELS 3 Xrotation Yrotation Zrotation
			JOINT Spine
			{
				OFFSET 0.000000 10.199997 -0.299500
				CHANNELS 3 Xrotation Yrotation Zrotation
				JOINT Spine1
				{
					OFFSET 0.000000 11.900002 -1.516600
					CHANNELS 3 Xrotation Yrotation Zrotation
					JOINT Spine2
					{
						OFFSET 0.000000 13.600006 -2.842500
						CHANNELS 3 Xrotation Yrotation Zrotation
						JOINT Neck_virtual
						{
							OFFSET 0.000000 0.000000 0.000000
							CHANNELS 3 Xrotation Yrotation Zrotation
							JOINT Neck
							{
								OFFSET 0.000000 9.624100 -2.890100
								CHANNELS 3 Xrotation Yrotation Zrotation
								JOINT Head
								{
									OFFSET 0.000000 14.068802 -1.351900
									CHANNELS 3 Xrotation Yrotation Zrotation
									End Site
									{
										OFFSET 0 0 0
									}
								}
							}
						}
						JOINT LeftShoulder_virtual
						{
							OFFSET 0.000000 0.000000 0.000000
							CHANNELS 3 Xrotation Yrotation Zrotation
							JOINT LeftShoulder
							{
								OFFSET 15.263000 10.923401 -0.547700
								CHANNELS 3 Xrotation Yrotation Zrotation
								JOINT LeftArm
								{
									OFFSET 25.438599 -2.830597 -13.032500
									CHANNELS 3 Xrotation Yrotation Zrotation
									JOINT LeftForeArm
									{
										OFFSET 29.960503 0.000000 0.000000
										CHANNELS 3 Xrotation Yrotation Zrotation
										JOINT LeftHand
										{
											OFFSET 27.849251 0.000000 0.000000
											CHANNELS 3 Xrotation Yrotation Zrotation
											End Site
											{
												OFFSET 0 0 0
											}
										}
									}
								}
							}
						}
						JOINT RightShoulder_virtual
						{
							OFFSET 0.000000 0.000000 0.000000
							CHANNELS 3 Xrotation Yrotation Zrotation
							JOINT RightShoulder
							{
								OFFSET -15.263000 10.923401 -0.547700
								CHANNELS 3 Xrotation Yrotation Zrotation
								JOINT RightArm
								{
									OFFSET -25.438599 -2.830597 -13.032500
									CHANNELS 3 Xrotation Yrotation Zrotation
									JOINT RightForeArm
									{
										OFFSET -29.960503 0.000000 0.000000
										CHANNELS 3 Xrotation Yrotation Zrotation
										JOINT RightHand
										{
											OFFSET -27.849251 0.000000 0.000000
											CHANNELS 3 Xrotation Yrotation Zrotation
											End Site
											{
												OFFSET 0 0 0
											}
										}
									}
								}
							}
						}
					}
				}
			}
		}
	}
}
MOTION
Frames: 12
Frame Time: 0.03333333
-21.500950 82.827927 -9.667271 0.000000 0.000000 0.000000 20.552968 -22.239839 16.726109 -24.276193 4.302654 30.978439 47.259459 3.866141 -11.218908 -3.680664 9.285347 -21.018478 0.000000 0.000000 0.000000 5.726852 10.933697 -4.398799 -27.540226 -0.154391 -21.422335 40.220327 -0.444680 1.772927 -13.513761 -5.119473 13.647706 0.000000 0.000000 0.000000 14.439247 13.533401 0.475211 26.347183 3.732531 1.772947 16.429528 1.609900 0.875816 8.718574 0.762326 0.533737 0.000000 0.000000 0.000000 6.661735 0.963465 -0.125297 1.240594 -1.154203 0.981113 0.000000 0.000000 0.000000 8.948011 0.583661 -0.210634 3.257467 -15.956768 -1.059017 -5.211646 -20.648678 -52.056184 6.090463 -58.121365 -1.552526 0.000000 0.000000 0.000000 10.990689 3.527625 0.444647 5.275278 17.468868 4.663079 -8.384014 25.154391 20.042415 2.998179 42.869508 -3.094080 0.000000 0.000000 0.000000 
-21.109747 82.529266 -9.629093 0.000000 0.000000 0.000000 20.125224 -21.762320 16.739639 -25.253897 4.272999 31.289554 47.909850 3.470332 -11.206606 -3.227301 8.861856 -21.272733 0.000000 0.000000 0.000000 5.656760 11.046656 -4.551174 -27.896466 -0.054526 -21.705332 40.658661 -0.114454 1.848801 -13.375903 -4.854613 13.992925 0.000000 0.000000 0.000000 14.920699 13.962618 0.462466 27.197894 3.432754 2.469994 16.621646 1.786385 0.927434 8.922764 0.848098 0.529614 0.000000 0.000000 0.000000 6.735370 1.045260 -0.137122 1.271244 -1.169817 1.018882 0.000000 0.000000 0.000000 9.151017 0.670946 -0.188439 3.279688 -16.197736 -0.622432 -5.267332 -21.013541 -51.885126 6.288893 -58.525876 -1.392675 0.000000 0.000000 0.000000 11.234365 3.654111 0.479469 5.291506 17.716058 4.675411 -9.145860 25.963298 18.739507 2.786309 43.006358 -3.306799 0.000000 0.000000 0.000000 
-20.660311 82.237816 -9.539196 0.000000 0.000000 0.000000 19.636780 -21.254818 16.669874 -26.304204 4.254533 31.532555 48.544682 3.054902 -11.163228 -2.782310 8.402986 -21.494735 0.000000 0.000000 0.000000 5.625164 11.087686 -4.780049 -28.232099 0.035454 -22.068686 41.076949 0.263262 1.957265 -13.293080 -4.574211 14.416603 0.000000 0.000000 0.000000 15.411021 14.413152 0.444417 27.987771 3.175870 3.209784 16.781134 1.970219 0.967333 9.111940 0.936759 0.518015 0.000000 0.000000 0.000000 6.787266 1.126525 -0.123194 1.289548 -1.190233 1.071010 0.000000 0.000000 0.000000 9.385325 0.757285 -0.157128 3.335596 -16.457341 -0.140275 -5.023543 -21.598260 -51.673465 6.741809 -59.101333 -1.061535 0.000000 0.000000 0.000000 11.456268 3.781778 0.530144 5.264294 17.934195 4.776649 -9.935709 26.750598 17.565843 2.550523 43.136606 -3.468777 0.000000 0.000000 0.000000 
-20.139553 81.909416 -9.458820 0.000000 0.000000 0.000000 19.029231 -20.456499 16.542563 -27.452987 4.280725 31.800907 49.194844 2.677698 -11.073024 -2.304935 7.956335 -21.625562 0.000000 0.000000 0.000000 5.650787 11.115067 -5.077945 -28.510367 0.123897 -22.492183 41.497265 0.679823 2.106402 -13.246167 -4.290317 14.923997 0.000000 0.000000 0.000000 15.892003 14.818099 0.419173 28.655738 2.762413 3.955708 16.913570 2.138410 0.981820 9.287806 1.018866 0.489717 0.000000 0.000000 0.000000 6.836799 1.190159 -0.135403 1.301963 -1.222855 1.108367 0.000000 0.000000 0.000000 9.617111 0.839522 -0.147664 3.370592 -16.737088 0.250349 -4.758305 -22.234713 -51.657834 7.173299 -59.753644 -0.819074 0.000000 0.000000 0.000000 11.674940 3.904611 0.572849 5.225011 18.112012 4.856083 -10.650928 27.550253 16.399621 2.337790 43.271854 -3.636645 0.000000 0.000000 0.000000 
-19.604258 81.558990 -9.362278 0.000000 0.000000 0.000000 18.514887 -19.582110 16.422169 -28.477362 4.353653 32.069794 49.862983 2.349757 -10.906725 -1.779834 7.519353 -21.619224 0.000000 0.000000 0.000000 5.688400 11.140709 -5.422261 -28.784446 0.221817 -22.950057 41.924965 1.109168 2.287055 -13.226250 -4.021718 15.482118 0.000000 0.000000 0.000000 16.366614 15.249461 0.373932 29.229583 2.357630 4.657075 17.026909 2.302653 0.975979 9.454894 1.100049 0.448987 0.000000 0.000000 0.000000 6.872425 1.237758 -0.166696 1.305837 -1.265364 1.135354 0.000000 0.000000 0.000000 9.848066 0.929673 -0.148175 3.394777 -16.993067 0.603685 -4.433910 -22.907608 -51.739014 7.645562 -60.443650 -0.584420 0.000000 0.000000 0.000000 11.881352 4.023419 0.605460 5.169725 18.257890 4.910937 -11.391008 28.338540 15.196235 2.108077 43.380785 -3.815096 0.000000 0.000000 0.000000 
-19.072451 81.133217 -9.248638 0.000000 0.000000 0.000000 17.990179 -18.902291 16.339153 -29.602180 4.358337 32.334365 50.536679 1.962432 -10.804725 -1.292505 7.052358 -21.733636 0.000000 0.000000 0.000000 5.791619 11.125914 -5.658288 -28.980243 0.260002 -23.303636 42.474389 1.534731 2.546843 -13.148796 -3.801498 16.152142 0.000000 0.000000 0.000000 16.830783 15.706722 0.308771 29.682165 1.934550 5.307770 17.155490 2.456247 0.946313 9.630155 1.177499 0.393484 0.000000 0.000000 0.000000 6.911923 1.290395 -0.171809 1.307747 -1.306853 1.176693 0.000000 0.000000 0.000000 10.078973 1.039352 -0.146962 3.414192 -17.186964 0.969854 -4.127003 -23.493336 -51.786849 8.070844 -61.030459 -0.366839 0.000000 0.000000 0.000000 12.122880 4.139787 0.625099 5.148207 18.372201 4.919703 -11.975686 29.128875 13.915147 1.932010 43.469885 -4.035169 0.000000 0.000000 0.000000 
-18.580347 80.656395 -9.139839 0.000000 0.000000 0.000000 17.495519 -17.955133 16.261881 -30.704518 4.431814 32.662101 51.140113 1.681160 -10.732689 -0.837840 6.703940 -21.820142 0.000000 0.000000 0.000000 5.953294 11.251555 -5.902835 -29.096934 0.317165 -23.637750 43.027829 1.966918 2.813045 -13.079442 -3.586946 16.829735 0.000000 0.000000 0.000000 17.276511 16.169462 0.218305 30.026225 1.395437 5.862304 17.275194 2.592243 0.887815 9.802320 1.248125 0.319800 0.000000 0.000000 0.000000 6.930394 1.340736 -0.204335 1.296259 -1.349662 1.202342 0.000000 0.000000 0.000000 10.311064 1.170799 -0.150830 3.423697 -17.300236 1.313852 -3.900070 -23.924249 -51.810622 8.373140 -61.434560 -0.223380 0.000000 0.000000 0.000000 12.402220 4.258607 0.635314 5.160840 18.474272 4.898956 -12.406180 29.954816 12.632212 1.812993 43.614542 -4.276689 0.000000 0.000000 0.000000 
-18.147980 80.127419 -9.031204 0.000000 0.000000 0.000000 17.068511 -17.042029 16.292728 -31.763699 4.476332 33.071127 51.752340 1.418166 -10.622454 -0.377431 6.355548 -21.835449 0.000000 0.000000 0.000000 6.190656 11.668363 -6.255174 -29.160147 0.457722 -24.035482 43.642026 2.388153 3.019511 -13.011936 -3.359615 17.408441 0.000000 0.000000 0.000000 17.761092 16.752586 0.110679 30.509349 1.066823 6.489209 17.356691 2.759508 0.827830 9.955600 1.334693 0.245794 0.000000 0.000000 0.000000 6.963907 1.400433 -0.233202 1.290399 -1.388830 1.230944 0.000000 0.000000 0.000000 10.572671 1.327066 -0.171721 3.440813 -17.333454 1.590072 -3.517303 -24.353171 -51.897936 8.743618 -61.789969 -0.077345 0.000000 0.000000 0.000000 12.685987 4.382015 0.637141 5.170453 18.560243 4.862468 -12.858909 30.715825 11.343991 1.670038 43.685326 -4.512901 0.000000 0.000000 0.000000 
-17.740540 79.536995 -8.893700 0.000000 0.000000 0.000000 16.657855 -16.109431 16.364723 -32.817952 4.509599 33.513597 52.391670 1.135681 -10.551659 0.077741 6.005898 -21.911535 0.000000 0.000000 0.000000 6.508727 12.335655 -6.679289 -29.155486 0.656388 -24.460372 44.339573 2.811216 3.240477 -12.939842 -3.149966 18.002690 0.000000 0.000000 0.000000 18.243206 17.361070 -0.020272 30.963003 0.724657 7.077802 17.449557 2.937247 0.772252 10.114267 1.426227 0.173487 0.000000 0.000000 0.000000 7.024209 1.454770 -0.272983 1.295206 -1.431745 1.253340 0.000000 0.000000 0.000000 10.833899 1.484922 -0.200145 3.440241 -17.378107 1.819499 -3.321849 -24.788551 -52.112889 9.001813 -62.244402 -0.018436 0.000000 0.000000 0.000000 13.003936 4.505516 0.622659 5.213019 18.626375 4.766587 -13.264387 31.366964 9.994069 1.533643 43.643112 -4.774815 0.000000 0.000000 0.000000 
-17.333536 78.867760 -8.718174 0.000000 0.000000 0.000000 16.232614 -15.298485 16.512983 -33.897669 4.474747 33.988394 53.035507 0.802723 -10.508914 0.505965 5.621442 -22.051783 0.000000 0.000000 0.000000 6.904330 13.201996 -7.062550 -29.069965 0.867171 -24.807133 45.167508 3.244780 3.528575 -12.830399 -2.977217 18.691685 0.000000 0.000000 0.000000 18.719428 17.995250 -0.152730 31.422077 0.404156 7.793925 17.540651 3.127509 0.769355 10.271149 1.523140 0.130910 0.000000 0.000000 0.000000 7.085450 1.509070 -0.314456 1.299341 -1.476176 1.274990 0.000000 0.000000 0.000000 11.116825 1.649580 -0.222977 3.450281 -17.424272 2.068265 -3.195514 -25.232954 -52.343571 9.248701 -62.756024 0.056033 0.000000 0.000000 0.000000 13.350339 4.633878 0.613121 5.266990 18.682229 4.716950 -13.709602 31.861883 8.645013 1.359051 43.431732 -5.025032 0.000000 0.000000 0.000000 
-16.965647 78.114853 -8.430679 0.000000 0.000000 0.000000 15.847820 -14.584629 16.674459 -34.941301 4.422253 34.440635 53.696283 0.438116 -10.504811 0.918984 5.225336 -22.255080 0.000000 0.000000 0.000000 7.368335 14.219958 -7.619132 -28.935181 1.138437 -25.271398 46.027767 3.651119 3.780484 -12.760826 -2.826518 19.297344 0.000000 0.000000 0.000000 19.196148 18.735098 -0.327023 31.855217 0.262901 8.429086 17.652793 3.361490 0.811134 10.433557 1.642981 0.124646 0.000000 0.000000 0.000000 7.158407 1.594436 -0.310569 1.307370 -1.504717 1.321765 0.000000 0.000000 0.000000 11.427860 1.829196 -0.223323 3.486367 -17.445220 2.406488 -3.088245 -25.647644 -52.477088 9.518113 -63.263302 0.205591 0.000000 0.000000 0.000000 13.755673 4.780209 0.609107 5.360098 18.775099 4.719215 -14.115729 32.272593 7.286925 1.192718 43.146950 -5.291157 0.000000 0.000000 0.000000 
-16.567522 77.369652 -8.155293 0.000000 0.000000 0.000000 15.456218 -13.816027 16.771224 -35.925446 4.400118 34.826315 54.179065 0.118450 -10.514651 1.193684 4.889086 -22.440998 0.000000 0.000000 0.000000 7.880223 15.256150 -8.095582 -28.718323 1.369705 -25.625359 46.885581 3.997636 4.094157 -12.707377 -2.769950 19.931602 0.000000 0.000000 0.000000 19.651634 19.479966 -0.473761 32.203031 0.130197 9.339596 17.799101 3.605929 0.928538 10.617567 1.762432 0.157881 0.000000 0.000000 0.000000 7.280923 1.684375 -0.282229 1.337187 -1.532582 1.380419 0.000000 0.000000 0.000000 11.755836 2.006561 -0.180272 3.549060 -17.500587 2.902205 -3.117563 -26.101042 -52.444744 9.817636 -63.899056 0.497603 0.000000 0.000000 0.000000 14.231699 4.940316 0.619030 5.499930 18.896808 4.802665 -14.460248 32.564061 5.931352 1.041673 42.763439 -5.574761 0.000000 0.000000 0.000000 
